# xmcd CD database file
#
# Track frame offsets:
#	150
#	18192
#	35527
#	48667
#	75067
#	99016
#	104342
#	126152
#	144901
#	164359
#	186189
#
# Disc length: 2782 seconds
#
# Revision: 3
# Processed by: cddbd v1.5.1PL0 Copyright (c) Steve Scherf et al.
# Submitted via: CDex 1.51
#
DISCID=7c0adc0b
DTITLE=Carlos Santana - Havana Moon
DYEAR=1983
DGENRE=Rock
TTITLE0=Watch Your Step
TTITLE1=Lightnin'
TTITLE2=Who Do You Love
TTITLE3=Mudbone
TTITLE4=One With You
TTITLE5=Ecuador
TTITLE6=Tales Of Kilimanjaro
TTITLE7=Havana Moon
TTITLE8=Daughter Of The Night
TTITLE9=They All Went To Mexico
TTITLE10=Vereda Tropical
EXTD=YEAR: 1983
EXTT0=
EXTT1=
EXTT2=
EXTT3=
EXTT4=
EXTT5=
EXTT6=
EXTT7=
EXTT8=
EXTT9=
EXTT10=
PLAYORDER=
